<svg width="64" height="64" viewBox="0 0 64 64" fill="none" xmlns="http://www.w3.org/2000/svg">
<path d="M37.625 28.25C37.625 30.3501 36.4624 32.2627 34.625 33.2373C34.1748 33.4624 33.875 34.0625 33.875 34.7373C33.875 35.75 33.0503 36.6123 32 36.6123C30.9497 36.6123 30.125 35.75 30.125 34.7373C30.125 33.0498 30.7998 31.5127 32 30.5C32.2627 30.2749 32.5625 30.0498 32.8623 29.8999C33.5 29.6001 33.875 28.9624 33.875 28.25C33.875 27.1997 33.0503 26.375 32 26.375C30.9497 26.375 30.125 27.1997 30.125 28.25C30.125 29.2998 29.3003 30.125 28.25 30.125C27.1997 30.125 26.375 29.2998 26.375 28.25C26.375 25.1372 28.8872 22.625 32 22.625C35.1128 22.625 37.625 25.1372 37.625 28.25Z" fill="#757575"/>
<path d="M33.875 39.5C33.875 40.5498 33.0503 41.375 32 41.375C30.9497 41.375 30.125 40.5498 30.125 39.5C30.125 38.4497 30.9497 37.625 32 37.625C33.0503 37.625 33.875 38.4497 33.875 39.5Z" fill="#757575"/>
<path d="M3.20068 11.7993L4.84814 10.1519L6.88525 12.1885C3.38135 16.6323 1.01953 22.145 0.28418 28.0493C0.146973 29.1528 1.06201 30.125 2.17383 30.125H13.6079C14.5215 30.125 15.2534 29.4546 15.4399 28.5601C16.8018 22.0366 22.0366 16.8018 28.5601 15.4399C29.4546 15.2534 30.125 14.5215 30.125 13.6079V2.17383C30.125 1.06201 29.1528 0.146973 28.0493 0.28418C22.145 1.01953 16.6323 3.38086 12.1885 6.88525L10.1519 4.84814L11.7993 3.20068C12.9805 2.01953 12.1436 0 10.4731 0H1.875C0.839355 0 0 0.839355 0 1.875V10.4731C0 12.1436 2.01953 12.9805 3.20068 11.7993Z" fill="#FE747D"/>
<path d="M62.125 0H53.5269C51.8564 0 51.0195 2.01953 52.2012 3.20068L53.8486 4.84814L51.8115 6.88525C47.3677 3.38086 41.855 1.01953 35.9507 0.28418C34.8472 0.146973 33.875 1.06201 33.875 2.17383V13.6079C33.875 14.5215 34.5454 15.2534 35.4399 15.4399C41.9634 16.8018 47.1982 22.0366 48.5601 28.5601C48.7466 29.4546 49.4785 30.125 50.3921 30.125H61.8262C62.938 30.125 63.853 29.1528 63.7158 28.0493C62.9805 22.145 60.6187 16.6323 57.1143 12.1885L59.1514 10.1519L60.7988 11.7993C61.9805 12.9805 64 12.144 64 10.4736V1.875C64 0.839355 63.1606 0 62.125 0Z" fill="#11BDCF"/>
<path d="M13.6079 33.875H2.17383C1.06201 33.875 0.146973 34.8472 0.28418 35.9507C1.01953 41.855 3.38135 47.3677 6.88574 51.8115L4.84863 53.8481L3.20117 52.2007C2.01953 51.0195 0 51.8564 0 53.5269V62.125C0 63.1606 0.839355 64 1.875 64H10.4731C12.1436 64 12.9805 61.9805 11.7988 60.7993L10.1514 59.1519L12.1885 57.1147C16.6318 60.6191 22.145 62.981 28.0488 63.7158C29.1523 63.853 30.125 62.938 30.125 61.8262V50.3921C30.125 49.4785 29.4546 48.7466 28.5601 48.5601C22.0366 47.1987 16.8013 41.9634 15.4399 35.4399C15.2534 34.5454 14.5215 33.875 13.6079 33.875Z" fill="#2A4F77"/>
<path d="M60.7993 52.2007L59.1519 53.8481L57.1147 51.8115C60.6187 47.3677 62.9805 41.855 63.7158 35.9507C63.853 34.8477 62.938 33.875 61.8262 33.875H50.3921C49.4785 33.875 48.7466 34.5454 48.5601 35.4399C47.1987 41.9634 41.9634 47.1982 35.4399 48.5601C34.5454 48.7466 33.875 49.4785 33.875 50.3921V61.8262C33.875 62.938 34.8477 63.853 35.9512 63.7158C41.855 62.9805 47.3682 60.6191 51.8115 57.1147L53.8486 59.1519L52.2012 60.7993C51.0195 61.9805 51.8564 64 53.5269 64H62.125C63.1606 64 64 63.1602 64 62.125V53.5264C64 51.8564 61.9805 51.0195 60.7993 52.2007Z" fill="#F2AB3E"/>
</svg>
