<svg width="128" height="128" viewBox="0 0 128 128" fill="none" xmlns="http://www.w3.org/2000/svg">
<path d="M75.25 56.5C75.25 60.7002 72.9248 64.5254 69.25 66.4746C68.3496 66.9248 67.75 68.125 67.75 69.4746C67.75 71.5 66.1006 73.2246 64 73.2246C61.8994 73.2246 60.25 71.5 60.25 69.4746C60.25 66.0996 61.5996 63.0254 64 61C64.5254 60.5498 65.125 60.0996 65.7246 59.7998C67 59.2002 67.75 57.9248 67.75 56.5C67.75 54.3994 66.1006 52.75 64 52.75C61.8994 52.75 60.25 54.3994 60.25 56.5C60.25 58.5996 58.6006 60.25 56.5 60.25C54.3994 60.25 52.75 58.5996 52.75 56.5C52.75 50.2744 57.7744 45.25 64 45.25C70.2256 45.25 75.25 50.2744 75.25 56.5Z" fill="#757575"/>
<path d="M67.75 79C67.75 81.0996 66.1006 82.75 64 82.75C61.8994 82.75 60.25 81.0996 60.25 79C60.25 76.8994 61.8994 75.25 64 75.25C66.1006 75.25 67.75 76.8994 67.75 79Z" fill="#757575"/>
<path d="M6.40137 23.5986L9.69629 20.3037L13.7705 24.377C6.7627 33.2646 2.03906 44.29 0.568359 56.0986C0.293945 58.3057 2.12402 60.25 4.34766 60.25H27.2158C29.043 60.25 30.5068 58.9092 30.8799 57.1201C33.6035 44.0732 44.0732 33.6035 57.1201 30.8799C58.9092 30.5068 60.25 29.043 60.25 27.2158V4.34766C60.25 2.12402 58.3057 0.293945 56.0986 0.568359C44.29 2.03906 33.2646 6.76172 24.377 13.7705L20.3037 9.69629L23.5986 6.40137C25.9609 4.03906 24.2871 0 20.9463 0H3.75C1.67871 0 0 1.67871 0 3.75V20.9463C0 24.2871 4.03906 25.9609 6.40137 23.5986Z" fill="#FE747D"/>
<path d="M124.25 0H107.054C103.713 0 102.039 4.03906 104.402 6.40137L107.697 9.69629L103.623 13.7705C94.7354 6.76172 83.71 2.03906 71.9014 0.568359C69.6943 0.293945 67.75 2.12402 67.75 4.34766V27.2158C67.75 29.043 69.0908 30.5068 70.8799 30.8799C83.9268 33.6035 94.3965 44.0732 97.1201 57.1201C97.4932 58.9092 98.957 60.25 100.784 60.25H123.652C125.876 60.25 127.706 58.3057 127.432 56.0986C125.961 44.29 121.237 33.2646 114.229 24.377L118.303 20.3037L121.598 23.5986C123.961 25.9609 128 24.2881 128 20.9473V3.75C128 1.67871 126.321 0 124.25 0Z" fill="#11BDCF"/>
<path d="M27.2158 67.75H4.34766C2.12402 67.75 0.293945 69.6943 0.568359 71.9014C2.03906 83.71 6.7627 94.7354 13.7715 103.623L9.69727 107.696L6.40234 104.401C4.03906 102.039 0 103.713 0 107.054V124.25C0 126.321 1.67871 128 3.75 128H20.9463C24.2871 128 25.9609 123.961 23.5977 121.599L20.3027 118.304L24.377 114.229C33.2637 121.238 44.29 125.962 56.0977 127.432C58.3047 127.706 60.25 125.876 60.25 123.652V100.784C60.25 98.957 58.9092 97.4932 57.1201 97.1201C44.0732 94.3975 33.6025 83.9268 30.8799 70.8799C30.5068 69.0908 29.043 67.75 27.2158 67.75Z" fill="#2A4F77"/>
<path d="M121.599 104.401L118.304 107.696L114.229 103.623C121.237 94.7354 125.961 83.71 127.432 71.9014C127.706 69.6953 125.876 67.75 123.652 67.75H100.784C98.957 67.75 97.4932 69.0908 97.1201 70.8799C94.3975 83.9268 83.9268 94.3965 70.8799 97.1201C69.0908 97.4932 67.75 98.957 67.75 100.784V123.652C67.75 125.876 69.6953 127.706 71.9023 127.432C83.71 125.961 94.7363 121.238 103.623 114.229L107.697 118.304L104.402 121.599C102.039 123.961 103.713 128 107.054 128H124.25C126.321 128 128 126.32 128 124.25V107.053C128 103.713 123.961 102.039 121.599 104.401Z" fill="#F2AB3E"/>
</svg>
