<svg width="24" height="24" viewBox="0 0 24 24" fill="none" xmlns="http://www.w3.org/2000/svg">
<path d="M23.25 20.2502H12.75C12.336 20.2502 12 19.9142 12 19.5002C12 19.0862 12 4.91424 12 4.50024C12 4.08624 12.336 3.75024 12.75 3.75024H23.25C23.664 3.75024 24 4.08624 24 4.50024V19.5002C24 19.9142 23.664 20.2502 23.25 20.2502Z" fill="#F5F5F5"/>
<path d="M15.75 8.25024H12.75C12.336 8.25024 12 7.91424 12 7.50024C12 7.08624 12.336 6.75024 12.75 6.75024H15.75C16.164 6.75024 16.5 7.08624 16.5 7.50024C16.5 7.91424 16.164 8.25024 15.75 8.25024Z" fill="#24AE5F"/>
<path d="M15.75 11.2502H12.75C12.336 11.2502 12 10.9142 12 10.5002C12 10.0862 12.336 9.75024 12.75 9.75024H15.75C16.164 9.75024 16.5 10.0862 16.5 10.5002C16.5 10.9142 16.164 11.2502 15.75 11.2502Z" fill="#24AE5F"/>
<path d="M15.75 14.2507H12.75C12.336 14.2507 12 13.9147 12 13.5007C12 13.0867 12.336 12.7507 12.75 12.7507H15.75C16.164 12.7507 16.5 13.0867 16.5 13.5007C16.5 13.9147 16.164 14.2507 15.75 14.2507Z" fill="#24AE5F"/>
<path d="M15.75 17.2507H12.75C12.336 17.2507 12 16.9147 12 16.5007C12 16.0867 12.336 15.7507 12.75 15.7507H15.75C16.164 15.7507 16.5 16.0867 16.5 16.5007C16.5 16.9147 16.164 17.2507 15.75 17.2507Z" fill="#24AE5F"/>
<path d="M20.25 8.25024H18.75C18.336 8.25024 18 7.91424 18 7.50024C18 7.08624 18.336 6.75024 18.75 6.75024H20.25C20.664 6.75024 21 7.08624 21 7.50024C21 7.91424 20.664 8.25024 20.25 8.25024Z" fill="#24AE5F"/>
<path d="M20.25 11.2502H18.75C18.336 11.2502 18 10.9142 18 10.5002C18 10.0862 18.336 9.75024 18.75 9.75024H20.25C20.664 9.75024 21 10.0862 21 10.5002C21 10.9142 20.664 11.2502 20.25 11.2502Z" fill="#24AE5F"/>
<path d="M20.25 14.2507H18.75C18.336 14.2507 18 13.9147 18 13.5007C18 13.0867 18.336 12.7507 18.75 12.7507H20.25C20.664 12.7507 21 13.0867 21 13.5007C21 13.9147 20.664 14.2507 20.25 14.2507Z" fill="#24AE5F"/>
<path d="M20.25 17.2507H18.75C18.336 17.2507 18 16.9147 18 16.5007C18 16.0867 18.336 15.7507 18.75 15.7507H20.25C20.664 15.7507 21 16.0867 21 16.5007C21 16.9147 20.664 17.2507 20.25 17.2507Z" fill="#24AE5F"/>
<path d="M13.2285 0.923267C13.0575 0.780767 12.828 0.719266 12.612 0.764266L0.612 3.01427C0.2565 3.08027 0 3.38927 0 3.75077V20.2508C0 20.6108 0.2565 20.9213 0.612 20.9873L12.612 23.2373C12.657 23.2463 12.7035 23.2508 12.75 23.2508C12.924 23.2508 13.0935 23.1908 13.2285 23.0783C13.401 22.9358 13.5 22.7228 13.5 22.5008V1.50077C13.5 1.27727 13.401 1.06577 13.2285 0.923267Z" fill="#24AE5F"/>
<path d="M10.3138 14.5072L7.9423 11.7967L10.3408 8.71274C10.5958 8.38574 10.5358 7.91474 10.2103 7.65974C9.88479 7.40474 9.41379 7.46474 9.15729 7.79024L6.93579 10.6462L5.06379 8.50724C4.78929 8.19224 4.31529 8.16374 4.00629 8.43674C3.69429 8.70974 3.66279 9.18374 3.93579 9.49424L5.99829 11.8522L3.90729 14.5402C3.65229 14.8672 3.71229 15.3382 4.03779 15.5932C4.17579 15.6997 4.33929 15.7507 4.49979 15.7507C4.72329 15.7507 4.94379 15.6517 5.09229 15.4612L7.0048 13.0012L9.18579 15.4927C9.33429 15.6637 9.54129 15.7507 9.74979 15.7507C9.92529 15.7507 10.1008 15.6892 10.2433 15.5647C10.5553 15.2917 10.5868 14.8177 10.3138 14.5072Z" fill="#F5F5F5"/>
</svg>
