<svg width="96" height="96" viewBox="0 0 96 96" fill="none" xmlns="http://www.w3.org/2000/svg">
<path d="M39.6802 66.8249C54.879 66.8249 67.2002 54.5038 67.2002 39.3049C67.2002 24.106 54.879 11.7849 39.6802 11.7849C24.4813 11.7849 12.1602 24.106 12.1602 39.3049C12.1602 54.5038 24.4813 66.8249 39.6802 66.8249Z" fill="#FFDCDE"/>
<path d="M80.0002 25.8648C77.8827 25.8648 76.1602 24.1423 76.1602 22.0248C76.1602 19.9074 77.8827 18.1848 80.0002 18.1848C82.1176 18.1848 83.8402 19.9074 83.8402 22.0248C83.8402 24.1423 82.1176 25.8648 80.0002 25.8648ZM80.0002 20.7448C79.2939 20.7448 78.7202 21.3186 78.7202 22.0248C78.7202 22.7311 79.2939 23.3048 80.0002 23.3048C80.7064 23.3048 81.2802 22.7311 81.2802 22.0248C81.2802 21.3186 80.7064 20.7448 80.0002 20.7448Z" fill="#F6515B"/>
<path d="M14.7202 39.945C15.4271 39.945 16.0002 39.3719 16.0002 38.665C16.0002 37.9581 15.4271 37.385 14.7202 37.385C14.0133 37.385 13.4402 37.9581 13.4402 38.665C13.4402 39.3719 14.0133 39.945 14.7202 39.945Z" fill="#F6515B"/>
<path d="M42.1302 16.1548C41.8028 16.1548 41.4751 16.0297 41.2252 15.7797L37.6053 12.1599C37.1055 11.6601 37.1055 10.8498 37.6053 10.35C38.1052 9.85014 38.9154 9.85014 39.4153 10.35L43.0351 13.9698C43.535 14.4697 43.535 15.2799 43.0351 15.7797C42.7852 16.03 42.4578 16.1548 42.1302 16.1548Z" fill="#F6515B"/>
<path d="M38.5103 16.1548C38.183 16.1548 37.8553 16.0297 37.6053 15.7797C37.1055 15.2799 37.1055 14.4697 37.6053 13.9698L41.2252 10.35C41.725 9.85014 42.5353 9.85014 43.0351 10.35C43.535 10.8498 43.535 11.6601 43.0351 12.1599L39.4153 15.7797C39.1653 16.03 38.8377 16.1548 38.5103 16.1548Z" fill="#F6515B"/>
<path d="M68.9916 84.7449H28.2889C27.1574 84.7449 26.2402 83.8277 26.2402 82.6962V30.9849H71.0402V82.6962C71.0402 83.8277 70.1231 84.7449 68.9916 84.7449Z" fill="#F5F5F5"/>
<path d="M68.9916 86.0248H28.2888C26.454 86.0248 24.9602 84.5311 24.9602 82.6962V30.9848C24.9602 30.2773 25.5327 29.7048 26.2402 29.7048H71.0402C71.7477 29.7048 72.3202 30.2773 72.3202 30.9848V82.6962C72.3202 84.5311 70.8264 86.0248 68.9916 86.0248ZM27.5202 32.2648V82.6962C27.5202 83.1199 27.8652 83.4648 28.2888 83.4648H68.9912C69.4149 83.4648 69.7599 83.1199 69.7599 82.6962V32.2648H27.5202Z" fill="#F6515B"/>
<path d="M37.1202 80.905C36.0597 80.905 35.2002 80.0455 35.2002 78.985V40.585C35.2002 39.5246 36.0597 38.665 37.1202 38.665C38.1807 38.665 39.0402 39.5246 39.0402 40.585V78.985C39.0402 80.0455 38.1807 80.905 37.1202 80.905Z" fill="#113255"/>
<path d="M37.1202 82.185C35.355 82.185 33.9202 80.7501 33.9202 78.985V40.585C33.9202 38.8199 35.355 37.385 37.1202 37.385C38.8853 37.385 40.3202 38.8199 40.3202 40.585V78.985C40.3202 80.7501 38.8853 82.185 37.1202 82.185ZM37.1202 39.945C36.7675 39.945 36.4802 40.2324 36.4802 40.585V78.985C36.4802 79.3376 36.7675 79.625 37.1202 79.625C37.4728 79.625 37.7602 79.3376 37.7602 78.985V40.585C37.7602 40.2327 37.4728 39.945 37.1202 39.945Z" fill="#F6515B"/>
<path d="M48.6402 80.905C47.5797 80.905 46.7202 80.0455 46.7202 78.985V40.585C46.7202 39.5246 47.5797 38.665 48.6402 38.665C49.7007 38.665 50.5602 39.5246 50.5602 40.585V78.985C50.5602 80.0455 49.7007 80.905 48.6402 80.905Z" fill="#113255"/>
<path d="M48.6402 82.185C46.8751 82.185 45.4402 80.7501 45.4402 78.985V40.585C45.4402 38.8199 46.8751 37.385 48.6402 37.385C50.4053 37.385 51.8402 38.8199 51.8402 40.585V78.985C51.8402 80.7501 50.4053 82.185 48.6402 82.185ZM48.6402 39.945C48.2875 39.945 48.0002 40.2324 48.0002 40.585V78.985C48.0002 79.3376 48.2875 79.625 48.6402 79.625C48.9928 79.625 49.2802 79.3376 49.2802 78.985V40.585C49.2802 40.2327 48.9928 39.945 48.6402 39.945Z" fill="#F6515B"/>
<path d="M60.1602 80.905C59.0998 80.905 58.2402 80.0455 58.2402 78.985V40.585C58.2402 39.5246 59.0998 38.665 60.1602 38.665C61.2207 38.665 62.0802 39.5246 62.0802 40.585V78.985C62.0802 80.0455 61.2207 80.905 60.1602 80.905Z" fill="#113255"/>
<path d="M60.1602 82.185C58.3951 82.185 56.9602 80.7501 56.9602 78.985V40.585C56.9602 38.8199 58.3951 37.385 60.1602 37.385C61.9253 37.385 63.3602 38.8199 63.3602 40.585V78.985C63.3602 80.7501 61.9253 82.185 60.1602 82.185ZM60.1602 39.945C59.8076 39.945 59.5202 40.2324 59.5202 40.585V78.985C59.5202 79.3376 59.8076 79.625 60.1602 79.625C60.5128 79.625 60.8002 79.3376 60.8002 78.985V40.585C60.8002 40.2327 60.5128 39.945 60.1602 39.945Z" fill="#F6515B"/>
<path d="M59.5202 32.2649H37.7602C37.0527 32.2649 36.4802 31.6924 36.4802 30.9849V26.5074C36.4802 23.3298 39.0652 20.7449 42.2428 20.7449H55.0377C58.2153 20.7449 60.8002 23.3298 60.8002 26.5074V30.9849C60.8002 31.6924 60.2277 32.2649 59.5202 32.2649ZM39.0402 29.7049H58.2402V26.5074C58.2402 24.741 56.8041 23.3049 55.0377 23.3049H42.2428C40.4764 23.3049 39.0402 24.741 39.0402 26.5074V29.7049Z" fill="#F6515B"/>
<path d="M22.4001 30.9849H74.8801V34.8249H22.4001V30.9849Z" fill="#F5F5F5"/>
<path d="M74.8801 36.1048H22.4001C21.6926 36.1048 21.1201 35.5324 21.1201 34.8248V30.9848C21.1201 30.2773 21.6926 29.7048 22.4001 29.7048H74.8801C75.5876 29.7048 76.1601 30.2773 76.1601 30.9848V34.8248C76.1601 35.5324 75.5876 36.1048 74.8801 36.1048ZM23.6801 33.5448H73.6001V32.2648H23.6801V33.5448Z" fill="#F6515B"/>
</svg>
