<svg width="24" height="24" viewBox="0 0 24 24" fill="none" xmlns="http://www.w3.org/2000/svg">
<path d="M14.6392 21.9278C14.6709 21.9296 14.7023 21.9323 14.7346 21.9323H22.0007C22.8506 21.9323 23.542 21.2408 23.542 20.3911V3.54713C23.542 2.69747 22.8506 2.00584 22.0007 2.00584H14.7346C14.7026 2.00584 14.6709 2.00899 14.6392 2.01047V0L0.45752 1.89266V22.0584L14.6392 24V21.9278ZM14.7346 2.88679H22.0007C22.365 2.88679 22.6612 3.18319 22.6612 3.54734V20.3915C22.6612 20.7555 22.365 21.052 22.0007 21.052H14.7346C14.7022 21.052 14.6706 21.0468 14.6392 21.0421V15.6629H21.4029C21.5651 15.6629 21.6966 15.5315 21.6966 15.3696C21.6966 15.2077 21.5651 15.0762 21.4029 15.0762H14.6392V13.2768H21.4029C21.565 13.2768 21.6966 13.1452 21.6966 12.9833C21.6966 12.8214 21.565 12.69 21.4029 12.69H14.6392V10.9466H21.4029C21.565 10.9466 21.6966 10.8151 21.6966 10.6533C21.6966 10.4913 21.565 10.36 21.4029 10.36H14.6392V8.59976H18.2778C18.4396 8.59976 18.5715 8.46839 18.5715 8.30647C18.5715 8.14447 18.4396 8.01331 18.2778 8.01331H14.6392V2.89642C14.6705 2.89183 14.702 2.88679 14.7346 2.88679ZM4.592 10.5472L3.41022 10.5661V14.2642L2.45004 14.2397V10.5824L1.34138 10.6011V9.7536L4.5922 9.66844V10.5471H4.592V10.5472ZM7.64747 14.3702L7.22475 13.4981C7.05316 13.164 6.94306 12.9156 6.81321 12.6403L6.79932 12.6394C6.70331 12.9138 6.58817 13.1579 6.4455 13.4856L6.06738 14.3302L4.91281 14.3018L6.20895 11.9518L4.95786 9.65869L6.12194 9.62858L6.51947 10.4798C6.65665 10.7654 6.75811 10.9957 6.86781 11.2617L6.8812 11.2619C6.99172 10.9575 7.08064 10.7451 7.19783 10.4683L7.59176 9.59L8.81728 9.55719L7.48112 11.9226L8.88876 14.4014L7.64747 14.3702ZM13.0295 10.4069L11.6173 10.4303V14.4697L10.4735 14.4405V10.4497L9.15456 10.4716V9.54838L13.0299 9.44647V10.4068H13.0295V10.4069Z" fill="#113255"/>
</svg>
