<svg xmlns="http://www.w3.org/2000/svg" fill="none" viewBox="0 0 111 40"><g clip-path="url(#a)"><path fill="#11BDCF" d="M107.04 39H3.96C1.774 39 0 37.469 0 35.58V11.126c0-1.833 1.674-3.34 3.796-3.417l103.079-3.706c2.25-.08 4.125 1.472 4.125 3.417v28.16c0 1.889-1.773 3.42-3.96 3.42z"/><path fill="#113255" d="M17.304 26.063v5.045a.257.257 0 0 1-.112.214c-1.497 1.015-3.78 1.736-5.684 1.736-4.243 0-7.45-3.068-7.45-7.132 0-4.043 3.286-7.09 7.688-7.09 1.98 0 4.071.728 5.504 1.906a.257.257 0 0 1 .03.361l-1.664 2.014a.252.252 0 0 1-.36.029c-.997-.835-2.316-1.343-3.53-1.343-2.29 0-4.043 1.793-4.043 4.123 0 2.371 1.772 4.163 4.083 4.163.676 0 1.528-.23 2.324-.606a.258.258 0 0 0 .146-.233v-3.187a.256.256 0 0 1 .256-.256h2.556a.255.255 0 0 1 .256.256zM26.907 28.974h-2.789v3.925h-3.545V18.955h6.235c3.684 0 5.795 1.753 5.795 4.86 0 2.132-.895 3.666-2.529 4.482l2.928 4.602h-4.024l-2.07-3.925zm-.098-2.788c1.533 0 2.43-.777 2.43-2.251 0-1.454-.897-2.192-2.43-2.192h-2.69v4.443h2.69zM38.96 30.328l-1.015 2.57H34.3l6.016-13.943h3.645l5.875 13.944h-3.784l-.996-2.57h-6.095zm3.069-7.848-2.033 5.16h4.024l-1.991-5.16zM57.925 18.955c4.383 0 7.41 2.829 7.41 6.971 0 4.124-3.068 6.972-7.55 6.972H51.93V18.955h5.996zm-2.45 11.115h2.53c2.171 0 3.724-1.673 3.724-4.123 0-2.47-1.632-4.163-3.883-4.163h-2.37v8.286zM71.552 21.743v2.77h6.654V27.3h-6.654v2.809h7.59v2.789H68.007V18.955h10.915v2.788h-7.37zM91.693 29.93V32.9H82.23V18.955h3.545V29.93h5.917zM101.375 32.899H97.85v-4.403l-5.16-9.541h3.545l3.367 6.075 3.287-6.075h3.545l-5.059 9.442v4.502z"/></g><defs><clipPath id="a"><path fill="#fff" d="M0 0H110.875V40H0z"/></clipPath></defs></svg>