<svg xmlns="http://www.w3.org/2000/svg" fill="none" viewBox="0 0 20 20"><g clip-path="url(#a)"><path fill="#F6515B" d="M.938 7.031c0-.863.7-1.562 1.562-1.562V18.75c-.863 0-1.563-.7-1.563-1.563V7.031zM2.813 5c0-.863.7-1.563 1.562-1.563V18.75c-.863 0-1.563-.7-1.563-1.563V5z"/><rect width="13.594" height="17.344" x="4.688" y="1.563" fill="#F6515B" rx="1"/><ellipse cx="11.936" cy="10.686" fill="#fff" rx="3.967" ry="3.967"/><path fill="#F6515B" fill-rule="evenodd" d="M14.99 15.123a5.39 5.39 0 1 1 1.386-1.386l3.601 3.602-1.385 1.386-3.602-3.602zm-3.055-1.01a3.43 3.43 0 1 0 0-6.86 3.43 3.43 0 0 0 0 6.86z" clip-rule="evenodd"/><path fill="#fff" d="m14.99 15.123.354-.353-.295-.295-.343.237.284.411zm1.386-1.385-.412-.284-.236.343.294.294.354-.353zm3.601 3.601.354.354.354-.354-.354-.354-.354.354zm-1.385 1.386-.354.353.354.354.353-.354-.353-.353zm-3.886-4.013a4.865 4.865 0 0 1-2.77.86v1c1.238 0 2.389-.383 3.338-1.037l-.568-.823zm-2.77.86a4.89 4.89 0 0 1-4.89-4.89h-1a5.89 5.89 0 0 0 5.89 5.89v-1zm-4.89-4.89c0-2.7 2.189-4.889 4.89-4.889v-1a5.89 5.89 0 0 0-5.89 5.89h1zm4.89-4.889c2.7 0 4.889 2.19 4.889 4.89h1a5.89 5.89 0 0 0-5.89-5.89v1zm4.889 4.89c0 1.03-.318 1.983-.86 2.77l.823.568a5.865 5.865 0 0 0 1.037-3.339h-1zm-.803 3.408 3.602 3.602.707-.708-3.602-3.601-.707.707zm3.602 2.894-1.386 1.386.707.707 1.386-1.385-.707-.708zm-.679 1.386-3.601-3.601-.707.707 3.601 3.601.707-.707zm-7.01-3.759a3.93 3.93 0 0 0 3.93-3.93h-1a2.93 2.93 0 0 1-2.93 2.93v1zm3.93-3.93a3.93 3.93 0 0 0-3.93-3.93v1a2.93 2.93 0 0 1 2.93 2.93h1zm-3.93-3.93a3.93 3.93 0 0 0-3.93 3.93h1a2.93 2.93 0 0 1 2.93-2.93v-1zm-3.93 3.93a3.93 3.93 0 0 0 3.93 3.93v-1a2.93 2.93 0 0 1-2.93-2.93h-1z"/><path fill="#F6515B" d="M11.813 8.594h-1.126v3.375h1.126V8.594zM13.219 9.719h-1.125v2.25h1.125v-2.25zM14.063 12.531h-4.22v.281h4.22v-.28z"/></g><defs><clipPath id="a"><path fill="#fff" d="M0 0H20V20H0z"/></clipPath></defs></svg>