<svg xmlns="http://www.w3.org/2000/svg" fill="none" viewBox="0 0 128 128"><path fill="#959595" d="M128 86.625c0-18.657-12.571-34.958-30.299-39.87C96.587 20.785 75.114 0 48.875 0 21.925 0 0 21.925 0 48.875a48.723 48.723 0 0 0 6.777 24.843L.18 97.569l23.852-6.596a48.694 48.694 0 0 0 22.722 6.726C51.665 115.428 67.967 128 86.625 128a41.225 41.225 0 0 0 21.053-5.752l20.141 5.571-5.571-20.141A41.225 41.225 0 0 0 128 86.625zM25.216 82.863l-14.28 3.95 3.95-14.279-.9-1.408A41.236 41.236 0 0 1 7.5 48.875C7.5 26.061 26.06 7.5 48.875 7.5c22.814 0 41.375 18.56 41.375 41.375 0 22.814-18.56 41.375-41.375 41.375a41.239 41.239 0 0 1-22.251-6.486l-1.408-.9zm91.847 34.2-10.595-2.931-1.415.921a33.75 33.75 0 0 1-18.428 5.447c-14.664 0-27.55-9.481-32.115-23.077 22.455-2.589 40.324-20.458 42.914-42.914C111.019 59.075 120.5 71.96 120.5 86.625a33.75 33.75 0 0 1-5.447 18.428l-.921 1.415 2.931 10.595z"/><path fill="#959595" d="M45.125 67.75h7.5v7.5h-7.5v-7.5zM56.375 37.5c0 2.13-.867 4.096-2.441 5.536L45.125 51.1v9.151h7.5v-5.849l6.372-5.832A15.042 15.042 0 0 0 63.875 37.5c0-8.271-6.728-15-15-15s-15 6.729-15 15h7.5c0-4.136 3.364-7.5 7.5-7.5s7.5 3.364 7.5 7.5z"/></svg>