<svg xmlns="http://www.w3.org/2000/svg" fill="none" viewBox="0 0 40 40"><g clip-path="url(#a)"><path fill="#FAA017" d="M22.85 40h-5.7l-2.294-4.844-1.935-.802-5.047 1.803-4.032-4.03 1.804-5.048-.802-1.935L0 22.85v-5.7l4.844-2.294.802-1.935-1.804-5.047 4.032-4.032 5.05 1.806 1.931-.8L17.15 0h5.7l2.295 4.847 1.931.8 5.05-1.805 4.032 4.032-1.804 5.047.802 1.935L40 17.15v5.7l-4.844 2.294-.802 1.935 1.803 5.047-4.03 4.032-5.048-1.804-1.935.802L22.85 40z"/><path fill="#FCEACF" d="M25 27.5H15v-8.75H9.782L20 6.83l10.218 11.92H25v8.75z"/><path fill="#113255" d="M22.5 30H25v2.5h-2.5V30zM15 30h2.5v2.5H15V30z"/></g><defs><clipPath id="a"><path fill="#fff" d="M0 0H40V40H0z"/></clipPath></defs></svg>