<svg xmlns="http://www.w3.org/2000/svg" viewBox="0 0 512 512"><path fill="#4dccff" d="M368 336H144a80 80 0 0 1 80-80h64a80 80 0 0 1 80 80z"/><path fill="#ffd4cf" d="m296 256-40 48-40-48 8-32h64z"/><path fill="#fb8656" d="M344 151.1v-68a60 60 0 0 0-60-60h-56a60 60 0 0 0-60 60v68z"/><path fill="#fbb8b0" d="M288 224h-64l-4.75 19 7.179 4.487a56 56 0 0 0 59.141.136l7.22-4.466z"/><path fill="#ffd4cf" d="M340 127.1h-20v-8h-18.7a80 80 0 0 1-68.6-38.84l-.7-1.16-40 40v8h-20a20 20 0 0 0-20 20v16a20 20 0 0 0 20 20h20v-3.71a50 50 0 0 0 23.5 42.4l19.408 12.13a40 40 0 0 0 42.244.1l19.148-11.851a50 50 0 0 0 23.7-42.521v3.452h20a20 20 0 0 0 20-20v-16a20 20 0 0 0-20-20z"/><path fill="#d16054" d="M256 216c13.458 0 24-8.785 24-20h-16c0 1.41-3.037 4-8 4s-8-2.59-8-4h-16c0 11.215 10.542 20 24 20z"/><path fill="#fdbf67" d="M428.517 273.722 280 296h-48L83.483 273.722A10 10 0 0 0 72 283.612v171.776a10 10 0 0 0 8.517 9.889L232 488h48l151.483-22.723a10 10 0 0 0 8.517-9.889V283.612a10 10 0 0 0-11.483-9.89z"/><path fill="#ffd4cf" d="M66 360h8a30 30 0 0 1 30 30v4a30 30 0 0 1-30 30h-8a10 10 0 0 1-10-10v-44a10 10 0 0 1 10-10z"/><path fill="#fb8656" d="M232 296h48v192h-48z"/><path fill="#ffd4cf" d="M418 360h8a30 30 0 0 1 30 30v4a30 30 0 0 1-30 30h-8a10 10 0 0 1-10-10v-44a10 10 0 0 1 10-10z" transform="rotate(180 432 392)"/><path fill="#d16054" d="M280 144h16v16h-16zM216 144h16v16h-16z"/><g fill="#fffdfa"><path d="M180 424.391h16v40.552h-16z" transform="rotate(-80.56 187.977 444.814)"/><path d="M124 415.057h16v40.552h-16z" transform="rotate(-80.56 131.964 435.47)"/><path d="M160 368.781h16v81.104h-16z" transform="rotate(-80.56 167.967 409.462)"/><path d="M303.338 432h97.324v16h-97.324z" transform="rotate(-9.44 352.933 441.017)"/><path d="M303.448 401.333h81.104v16h-81.104z" transform="rotate(-9.44 344.91 410.281)"/><path d="m104 312 104 16v56l-104-16zM408 312l-104 16v56l104-16z"/></g></svg>