<svg xmlns="http://www.w3.org/2000/svg" fill="none" viewBox="0 0 96 96"><path fill="#FFDCDE" d="M39.68 66.825c15.199 0 27.52-12.322 27.52-27.52 0-15.2-12.321-27.52-27.52-27.52s-27.52 12.32-27.52 27.52c0 15.199 12.321 27.52 27.52 27.52z"/><path fill="#F6515B" d="M80 25.865a3.844 3.844 0 0 1-3.84-3.84 3.844 3.844 0 0 1 3.84-3.84 3.844 3.844 0 0 1 3.84 3.84 3.844 3.844 0 0 1-3.84 3.84zm0-5.12a1.28 1.28 0 1 0 .002 2.562A1.28 1.28 0 0 0 80 20.745zM14.72 39.945a1.28 1.28 0 1 0 0-2.56 1.28 1.28 0 0 0 0 2.56zM42.13 16.155c-.327 0-.655-.125-.905-.375l-3.62-3.62a1.28 1.28 0 1 1 1.81-1.81l3.62 3.62a1.28 1.28 0 0 1-.905 2.185z"/><path fill="#F6515B" d="M38.51 16.155a1.28 1.28 0 0 1-.905-2.185l3.62-3.62a1.28 1.28 0 1 1 1.81 1.81l-3.62 3.62c-.25.25-.577.375-.905.375z"/><path fill="#F5F5F5" d="M68.992 84.745H28.289a2.049 2.049 0 0 1-2.049-2.049V30.985h44.8v51.711a2.049 2.049 0 0 1-2.048 2.049z"/><path fill="#F6515B" d="M68.991 86.025H28.29a3.333 3.333 0 0 1-3.329-3.329v-51.71c0-.708.572-1.28 1.28-1.28h44.8c.707 0 1.28.572 1.28 1.28v51.71a3.333 3.333 0 0 1-3.329 3.33zM27.52 32.265v50.431a.77.77 0 0 0 .769.77H68.99a.77.77 0 0 0 .769-.77v-50.43H27.52z"/><path fill="#113255" d="M37.12 80.904a1.92 1.92 0 0 1-1.92-1.92v-38.4a1.92 1.92 0 1 1 3.84 0v38.4c0 1.061-.86 1.92-1.92 1.92z"/><path fill="#F6515B" d="M37.12 82.185a3.203 3.203 0 0 1-3.2-3.2v-38.4c0-1.765 1.435-3.2 3.2-3.2 1.765 0 3.2 1.435 3.2 3.2v38.4c0 1.765-1.435 3.2-3.2 3.2zm0-42.24a.641.641 0 0 0-.64.64v38.4a.641.641 0 0 0 1.28 0v-38.4a.641.641 0 0 0-.64-.64z"/><path fill="#113255" d="M48.64 80.904a1.92 1.92 0 0 1-1.92-1.92v-38.4a1.92 1.92 0 1 1 3.84 0v38.4c0 1.061-.859 1.92-1.92 1.92z"/><path fill="#F6515B" d="M48.64 82.185a3.203 3.203 0 0 1-3.2-3.2v-38.4c0-1.765 1.435-3.2 3.2-3.2 1.766 0 3.2 1.435 3.2 3.2v38.4c0 1.765-1.434 3.2-3.2 3.2zm0-42.24a.641.641 0 0 0-.64.64v38.4a.641.641 0 0 0 1.28 0v-38.4a.641.641 0 0 0-.64-.64z"/><path fill="#113255" d="M60.16 80.904a1.92 1.92 0 0 1-1.92-1.92v-38.4a1.92 1.92 0 1 1 3.84 0v38.4c0 1.061-.86 1.92-1.92 1.92z"/><path fill="#F6515B" d="M60.16 82.185a3.203 3.203 0 0 1-3.2-3.2v-38.4c0-1.765 1.435-3.2 3.2-3.2 1.765 0 3.2 1.435 3.2 3.2v38.4c0 1.765-1.435 3.2-3.2 3.2zm0-42.24a.641.641 0 0 0-.64.64v38.4a.641.641 0 0 0 1.28 0v-38.4a.641.641 0 0 0-.64-.64zM59.52 32.265H37.76a1.28 1.28 0 0 1-1.28-1.28v-4.478a5.769 5.769 0 0 1 5.763-5.762h12.795a5.769 5.769 0 0 1 5.763 5.762v4.478a1.28 1.28 0 0 1-1.28 1.28zm-20.48-2.56h19.2v-3.198a3.206 3.206 0 0 0-3.202-3.202H42.243a3.206 3.206 0 0 0-3.203 3.202v3.198z"/><path fill="#F5F5F5" d="M22.4 30.985h52.48v3.84H22.4v-3.84z"/><path fill="#F6515B" d="M74.88 36.105H22.4a1.28 1.28 0 0 1-1.28-1.28v-3.84c0-.707.573-1.28 1.28-1.28h52.48c.708 0 1.28.573 1.28 1.28v3.84a1.28 1.28 0 0 1-1.28 1.28zm-51.2-2.56H73.6v-1.28H23.68v1.28z"/></svg>