<svg xmlns="http://www.w3.org/2000/svg" fill="none" viewBox="0 0 96 96"><circle cx="48" cy="48" r="48" fill="#FFDCDE"/><circle cx="47.667" cy="47.667" r="36.667" fill="#F6515B"/><path fill="#fff" fill-rule="evenodd" d="M60.297 35.703a1.833 1.833 0 0 1 0 2.593l-22 22a1.833 1.833 0 1 1-2.593-2.593l22-22a1.833 1.833 0 0 1 2.593 0z" clip-rule="evenodd"/><path fill="#fff" fill-rule="evenodd" d="M35.704 35.703a1.833 1.833 0 0 1 2.593 0l22 22a1.833 1.833 0 1 1-2.593 2.593l-22-22a1.833 1.833 0 0 1 0-2.593z" clip-rule="evenodd"/></svg>