<svg xmlns="http://www.w3.org/2000/svg" fill="none" viewBox="0 0 41 40"><g clip-path="url(#a)"><path fill="#11BDCF" d="M40.523 35.5a4.513 4.513 0 0 1-1.33 3.182A4.524 4.524 0 0 1 36.002 40H4.5a4.519 4.519 0 0 1-3.18-1.323A4.507 4.507 0 0 1 0 35.5V8.533c.025-1.23.49-2.41 1.31-3.328a5.159 5.159 0 0 1 3.164-1.674L36.044.026a3.96 3.96 0 0 1 4.153 2.343c.227.523.339 1.09.326 1.66v31.47z"/><path fill="#113255" d="M27.658 23.963v8.677a.439.439 0 0 1-.191.365 18.992 18.992 0 0 1-9.79 2.987c-7.305 0-12.827-5.287-12.827-12.267 0-6.98 5.66-12.193 13.236-12.193a15.498 15.498 0 0 1 9.482 3.273.449.449 0 0 1 .053.624l-2.87 3.458a.433.433 0 0 1-.62.053 9.84 9.84 0 0 0-6.077-2.305 6.923 6.923 0 0 0-4.97 2.08 6.905 6.905 0 0 0-1.966 5.01 6.951 6.951 0 0 0 4.28 6.622c.863.36 1.79.543 2.724.538a9.942 9.942 0 0 0 4.003-1.058.45.45 0 0 0 .254-.402v-5.462a.439.439 0 0 1 .44-.439h4.4a.44.44 0 0 1 .439.44zM35.673 33.513a2.37 2.37 0 0 1-1.515 2.322 2.38 2.38 0 0 1-.968.158 2.47 2.47 0 0 1-2.266-1.529 2.461 2.461 0 0 1 1.797-3.351 2.47 2.47 0 0 1 2.53 1.037c.272.403.42.877.422 1.363z"/></g><defs><clipPath id="a"><path fill="#fff" d="M0 0H40.523V40H0z"/></clipPath></defs></svg>