<svg xmlns="http://www.w3.org/2000/svg" fill="none" viewBox="0 0 32 33"><path fill="#11BDCF" d="M32 29.07a3.57 3.57 0 0 1-3.57 3.557H3.554A3.566 3.566 0 0 1 0 29.07V7.748a4.072 4.072 0 0 1 3.533-3.955l24.93-2.772A3.123 3.123 0 0 1 32 4.185V29.07z"/><path fill="#113255" d="M21.84 19.948v6.86a.348.348 0 0 1-.15.289 14.985 14.985 0 0 1-7.73 2.362c-5.77 0-10.13-4.18-10.13-9.7 0-5.518 4.469-9.64 10.452-9.64 2.714.008 5.348.918 7.488 2.588a.355.355 0 0 1 .041.493l-2.266 2.734a.343.343 0 0 1-.489.042 7.764 7.764 0 0 0-4.8-1.823A5.46 5.46 0 0 0 8.78 19.76a5.502 5.502 0 0 0 5.531 5.66 7.844 7.844 0 0 0 3.16-.836.354.354 0 0 0 .201-.317v-4.32a.347.347 0 0 1 .347-.346h3.475a.347.347 0 0 1 .347.347zM28.17 27.498a1.876 1.876 0 0 1-1.96 1.961 1.949 1.949 0 1 1 1.96-1.96z"/></svg>