<svg xmlns="http://www.w3.org/2000/svg" fill="none" viewBox="0 0 128 128"><circle cx="64" cy="64" r="64" fill="#E4FBEF"/><circle cx="64" cy="64.001" r="50.361" fill="#60D2B0" fill-opacity=".25"/><circle cx="63.65" cy="63.65" r="38.47" fill="#24AE5F"/><path fill="#fff" fill-rule="evenodd" d="m53.25 81.481-3.41-3.41 33.038-33.158a2.893 2.893 0 0 1 4.091 0l1.364 1.364a2.893 2.893 0 0 1 0 4.091L57.341 81.481a2.893 2.893 0 0 1-4.092 0z" clip-rule="evenodd"/><path fill="#fff" fill-rule="evenodd" d="m60.744 78.072-3.41 3.41a2.893 2.893 0 0 1-4.09 0L39.666 67.904a2.893 2.893 0 0 1 0-4.091l1.364-1.364a2.893 2.893 0 0 1 4.091 0l15.622 15.622z" clip-rule="evenodd"/></svg>