<svg xmlns="http://www.w3.org/2000/svg" fill="none" viewBox="0 0 48 48"><path fill="#113255" d="M48 24c0 13.255-10.745 24-24 24S0 37.255 0 24 10.745 0 24 0s24 10.745 24 24z"/><path fill="#11BDCF" d="M15.477 23.05h17.046a7.321 7.321 0 1 0 0-14.643H15.477a7.321 7.321 0 0 0 0 14.643z"/><path fill="#DBF5F8" d="M21.785 15.66a6.083 6.083 0 1 1-12.166 0 6.083 6.083 0 0 1 12.166 0z"/><path fill="#FAA017" d="M15.477 39.235h17.046a7.321 7.321 0 0 0 0-14.643H15.477a7.321 7.321 0 0 0 0 14.643z"/><path fill="#DBF5F8" d="M38.263 31.845a6.083 6.083 0 1 1-12.167 0 6.083 6.083 0 0 1 12.167 0z"/></svg>