<svg width="111" height="40" viewBox="0 0 111 40" fill="none" xmlns="http://www.w3.org/2000/svg">
<g clip-path="url(#clip0)">
<path d="M107.04 39H3.96067C1.77335 39 0 37.469 0 35.5801V11.1258C0 9.29301 1.67442 7.78534 3.79587 7.70901L106.875 4.00302C109.125 3.92216 111 5.47532 111 7.41985V35.5808C111 37.4688 109.227 39 107.04 39Z" fill="#11BDCF"/>
<path d="M17.3038 26.0628V31.108C17.3042 31.1501 17.2942 31.1916 17.2748 31.2289C17.2554 31.2662 17.2271 31.2981 17.1924 31.3219C15.6953 32.337 13.4122 33.0576 11.508 33.0576C7.26492 33.0576 4.05762 29.9897 4.05762 25.9263C4.05762 21.8831 7.34427 18.8354 11.7463 18.8354C13.7266 18.8354 15.8171 19.5641 17.2498 20.7423C17.3016 20.7863 17.3338 20.8489 17.3395 20.9166C17.3453 20.9842 17.324 21.0513 17.2804 21.1034L15.6162 23.1167C15.5947 23.1426 15.5682 23.1638 15.5383 23.1793C15.5084 23.1948 15.4757 23.2041 15.4421 23.2068C15.4086 23.2095 15.3748 23.2054 15.3429 23.1949C15.3109 23.1844 15.2814 23.1676 15.256 23.1456C14.2591 22.3114 12.9395 21.803 11.7261 21.803C9.43573 21.803 7.68312 23.596 7.68312 25.9263C7.68312 28.297 9.4552 30.0893 11.7657 30.0893C12.442 30.0893 13.2936 29.8598 14.0901 29.4833C14.1339 29.4621 14.1709 29.429 14.1967 29.3877C14.2225 29.3464 14.2361 29.2986 14.236 29.2499V26.0628C14.236 26.0292 14.2426 25.996 14.2554 25.965C14.2683 25.9339 14.2872 25.9058 14.3109 25.882C14.3347 25.8583 14.3629 25.8395 14.3939 25.8266C14.4249 25.8138 14.4582 25.8072 14.4918 25.8073H17.048C17.0816 25.8072 17.1148 25.8138 17.1459 25.8266C17.1769 25.8395 17.2051 25.8583 17.2289 25.882C17.2526 25.9058 17.2715 25.9339 17.2843 25.965C17.2972 25.996 17.3038 26.0292 17.3038 26.0628Z" fill="#113255"/>
<path d="M26.9075 28.974H24.1182V32.8986H20.5732V18.9546H26.808C30.4921 18.9546 32.6035 20.7082 32.6035 23.8149C32.6035 25.9466 31.7078 27.4806 30.0744 28.297L33.002 32.8986H28.9785L26.9075 28.974ZM26.8089 26.1856C28.342 26.1856 29.2388 25.4088 29.2388 23.9347C29.2388 22.4808 28.342 21.7432 26.8089 21.7432H24.1182V26.1856H26.8089Z" fill="#113255"/>
<path d="M38.9608 30.3281L37.945 32.8986H34.2996L40.3162 18.9546H43.9609L49.8361 32.8986H46.0521L45.056 30.3286L38.9608 30.3281ZM42.0289 22.4803L39.9958 27.6393H44.02L42.0289 22.4803Z" fill="#113255"/>
<path d="M57.9254 18.9546C62.3077 18.9546 65.3351 21.7836 65.3351 25.9263C65.3351 30.0496 62.2672 32.8981 57.7859 32.8981H51.9294V18.9546H57.9254ZM55.4753 30.0698H58.0047C60.176 30.0698 61.7295 28.3966 61.7295 25.9466C61.7295 23.4763 60.0967 21.7836 57.846 21.7836H55.4753V30.0698Z" fill="#113255"/>
<path d="M71.552 21.7432V24.5123H78.2056V27.3007H71.552V30.11H79.1421V32.8986H68.0068V18.9546H78.922V21.7432H71.552Z" fill="#113255"/>
<path d="M91.6927 29.9306V32.8986H82.2314V18.9546H85.7764V29.9306H91.6927Z" fill="#113255"/>
<path d="M101.375 32.8986H97.8495V28.4961L92.6904 18.9546H96.2353L99.6021 25.0298L102.889 18.9546H106.434L101.375 28.3966V32.8986Z" fill="#113255"/>
</g>
<defs>
<clipPath id="clip0">
<rect width="110.875" height="40" fill="white"/>
</clipPath>
</defs>
</svg>
